#!OML:ASF H:\Male1\Project 1\Capture day 1\Session 1\Male1.ASF
:FULLY-SPECIFIED
:DEGREES
159
root 12.0339 22.1054 -0.295719 -175.423 -86.1369 174.432
lowerback 7.9776 1.69617 -0.24073
upperback 5.29676 2.04681 -1.39647
thorax 1.04757 0.959114 -1.44506
lowerneck -5.74386 2.66589 6.40714
upperneck 20.0999 2.45177 -0.328878
head 7.19909 1.45468 -1.00455
rclavicle -3.01159e-014 2.3059e-014
rhumerus -35.0648 11.5256 -91.3112
rradius 38.7548
rwrist -24.3188
rhand -16.0246 2.28399
rfingers 7.12502
rthumb 10.1765 -27.4499
lclavicle -3.01159e-014 2.3059e-014
lhumerus -25.725 4.71078 78.3155
lradius 25.5058
lwrist -8.47082
lhand -17.6096 10.2942
lfingers 7.12502
lthumb 8.64707 40.0971
rfemur -12.6247 7.99513 27.4984
rtibia 33.4523
rfoot -29.158 -22.7765
rtoes -12.8209
lfemur -14.4381 -13.1212 -23.8964
ltibia 37.1436
lfoot -22.682 16.6418
ltoes -5.34025
160
root 12.0231 22.1138 -0.285353 -175.41 -86.0133 174.444
lowerback 7.95457 1.726 -0.211691
upperback 5.18868 2.09204 -1.44908
thorax 0.952383 0.984825 -1.51958
lowerneck -5.77803 2.63972 6.38742
upperneck 20.164 2.38437 -0.189485
head 7.22246 1.43238 -0.961148
rclavicle -6.06293e-015 1.19271e-014
rhumerus -35.2769 11.8009 -91.605
rradius 38.9931
rwrist -24.2932
rhand -16.017 2.23203
rfingers 7.12502
rthumb 10.1838 -27.5015
lclavicle -6.06293e-015 1.19271e-014
lhumerus -25.7238 4.70775 78.3185
lradius 25.5057
lwrist -8.57776
lhand -17.637 10.4559
lfingers 7.12502
lthumb 8.62061 40.2599
rfemur -12.4436 8.40154 27.4712
rtibia 33.2147
rfoot -29.275 -22.9187
rtoes -12.6491
lfemur -14.2018 -13.3231 -23.9655
ltibia 36.8119
lfoot -22.9022 16.7568
ltoes -4.22939
161
root 12.0139 22.1215 -0.275098 -175.772 -85.9008 174.845
lowerback 7.91944 1.76782 -0.15793
upperback 5.08152 2.15495 -1.5001
thorax 0.866357 1.01991 -1.60718
lowerneck -5.74579 2.60459 6.3676
upperneck 20.1712 2.30693 -0.0299387
head 7.21505 1.40622 -0.912721
rclavicle 1.43125e-014 3.97569e-016
rhumerus -35.5053 12.0022 -91.8574
rradius 39.1708
rwrist -24.1743
rhand -16.0231 2.18053
rfingers 7.12502
rthumb 10.1779 -27.5533
lclavicle 1.43125e-014 3.97569e-016
lhumerus -25.7618 4.48703 78.4164
lradius 25.713
lwrist -8.34676
lhand -17.813 10.5204
lfingers 7.12502
lthumb 8.45084 40.3314
rfemur -12.3066 8.77622 27.4753
rtibia 32.9997
rfoot -29.3549 -23.0989
rtoes -12.5803
lfemur -14.0002 -13.5338 -24.008
ltibia 36.5044
lfoot -23.1138 16.925
ltoes -3.17413
162
root 12.0063 22.1281 -0.265103 -175.744 -85.8102 174.863
lowerback 7.85145 1.81052 -0.14568
upperback 4.99686 2.21618 -1.55384
thorax 0.820445 1.05293 -1.67281
lowerneck -5.6691 2.56957 6.35026
upperneck 20.1135 2.23677 0.123293
head 7.17898 1.38262 -0.866637
rclavicle 3.77691e-015 6.36111e-015
rhumerus -35.7026 12.1387 -92.0493
rradius 39.2791
rwrist -23.973
rhand -16.0404 2.14884
rfingers 7.12502
rthumb 10.1612 -27.5858
lclavicle 3.77691e-015 6.36111e-015
lhumerus -25.8132 4.11397 78.6042
lradius 26.0965
lwrist -7.79684
lhand -18.101 10.5059
lfingers 7.12502
lthumb 8.17286 40.3278
rfemur -12.2185 9.11317 27.4537
rtibia 32.8395
rfoot -29.4628 -23.2777
rtoes -12.4723
lfemur -13.8213 -13.7562 -24.0801
ltibia 36.2043
lfoot -23.2753 17.1383
ltoes -2.29014
163
root 12.0009 22.1332 -0.25566 -174.862 -85.7409 174.016
lowerback 7.76517 1.84704 -0.225671
upperback 4.94783 2.26232 -1.61197
thorax 0.817708 1.07583 -1.68901
lowerneck -5.58433 2.53382 6.33068
upperneck 20.0273 2.17632 0.237033
head 7.13278 1.36007 -0.832313
rclavicle 6.26172e-015 -3.57812e-015
rhumerus -35.844 12.2212 -92.1716
rradius 39.3164
rwrist -23.7063
rhand -16.0616 2.13847
rfingers 7.12502
rthumb 10.1408 -27.5971
lclavicle 6.26172e-015 -3.57812e-015
lhumerus -25.8615 3.64433 78.8694
lradius 26.6201
lwrist -6.98234
lhand -18.4637 10.4108
lfingers 7.12502
lthumb 7.82281 40.246
rfemur -12.1674 9.41728 27.3706
rtibia 32.7526
rfoot -29.6285 -23.437
rtoes -12.2462
lfemur -13.6476 -13.9758 -24.2193
ltibia 35.9044
lfoot -23.369 17.3718
ltoes -1.6352
164
root 11.998 22.1366 -0.246705 -173.358 -85.6901 172.526
lowerback 7.67996 1.87372 -0.38362
upperback 4.93494 2.28934 -1.6684
thorax 0.848037 1.08674 -1.65787
lowerneck -5.55324 2.51431 6.33405
upperneck 19.9635 2.14648 0.276646
head 7.10533 1.34857 -0.822759
rclavicle -9.83984e-015 1.55052e-014
rhumerus -35.9269 12.263 -92.2291
rradius 39.2891
rwrist -23.4133
rhand -16.0965 2.1337
rfingers 7.12502
rthumb 10.107 -27.6036
lclavicle -9.83984e-015 1.55052e-014
lhumerus -25.8891 3.10855 79.1971
lradius 27.2387
lwrist -5.98944
lhand -18.8548 10.1995
lfingers 7.12502
lthumb 7.44535 40.0485
rfemur -12.145 9.69072 27.2419
rtibia 32.7387
rfoot -29.8364 -23.5866
rtoes -11.9183
lfemur -13.4732 -14.1873 -24.4058
ltibia 35.6081
lfoot -23.4102 17.5817
ltoes -1.08836
165
root 11.997 22.1386 -0.237901 -171.616 -85.6533 170.77
lowerback 7.63999 1.88947 -0.570035
upperback 4.93604 2.29855 -1.72744
thorax 0.866429 1.08753 -1.6136
lowerneck -5.53799 2.50775 6.31926
upperneck 19.8975 2.1383 0.306978
head 7.08037 1.34561 -0.811299
rclavicle 3.04141e-014 -3.65764e-014
rhumerus -35.9892 12.2759 -92.2538
rradius 39.2115
rwrist -23.1506
rhand -16.1566 2.12314
rfingers 7.12502
rthumb 10.0491 -27.6169
lclavicle 3.04141e-014 -3.65764e-014
lhumerus -25.9116 2.50579 79.558
lradius 27.9141
lwrist -4.92649
lhand -19.2032 9.89187
lfingers 7.12502
lthumb 7.10903 39.7525
rfemur -12.1345 9.9194 27.0943
rtibia 32.7779
rfoot -30.0289 -23.7417
rtoes -11.6125
lfemur -13.291 -14.3749 -24.6131
ltibia 35.3273
lfoot -23.4082 17.7558
ltoes -0.652932
166
root 11.9974 22.1394 -0.229049 -169.987 -85.627 169.099
lowerback 7.63983 1.89692 -0.752943
upperback 4.94703 2.2956 -1.78105
thorax 0.872781 1.08185 -1.5661
lowerneck -5.53822 2.51444 6.2885
upperneck 19.8481 2.15183 0.322177
head 7.06401 1.35099 -0.800206
rclavicle 4.37326e-015 -1.90833e-014
rhumerus -36.051 12.2842 -92.2579
rradius 39.0983
rwrist -22.9657
rhand -16.2393 2.08532
rfingers 7.12502
rthumb 9.96929 -27.6586
lclavicle 4.37326e-015 -1.90833e-014
lhumerus -25.9337 1.8593 79.9403
lradius 28.6252
lwrist -3.92653
lhand -19.4419 9.57363
lfingers 7.12502
lthumb 6.87855 39.4419
rfemur -12.1144 10.1018 26.9538
rtibia 32.8403
rfoot -30.1763 -23.9014
rtoes -11.4026
lfemur -13.1014 -14.5127 -24.8183
ltibia 35.0757
lfoot -23.3434 17.9297
ltoes -0.509215
167
root 11.9983 22.1396 -0.220232 -168.728 -85.6217 167.781
lowerback 7.65998 1.90312 -0.896398
upperback 4.96202 2.2928 -1.82965
thorax 0.87352 1.07696 -1.53616
lowerneck -5.58452 2.53462 6.27574
upperneck 19.8591 2.18043 0.313679
head 7.07649 1.36375 -0.798028
rclavicle -2.5842e-015 3.97569e-015
rhumerus -36.1191 12.2539 -92.2447
rradius 38.9452
rwrist -22.8592
rhand -16.3377 2.02171
rfingers 7.12502
rthumb 9.87435 -27.7267
lclavicle -2.5842e-015 3.97569e-015
lhumerus -25.9505 1.1765 80.3287
lradius 29.3559
lwrist -3.11618
lhand -19.5505 9.28554
lfingers 7.12502
lthumb 6.77372 39.1572
rfemur -12.074 10.2535 26.8428
rtibia 32.8958
rfoot -30.2916 -24.0573
rtoes -11.2682
lfemur -12.9196 -14.5932 -24.997
ltibia 34.8651
lfoot -23.2104 18.1195
ltoes -0.730473
168
root 11.9989 22.1397 -0.211611 -167.854 -85.6372 166.84
lowerback 7.68256 1.91439 -0.989902
upperback 4.97301 2.29991 -1.87853
thorax 0.871027 1.07832 -1.53528
lowerneck -5.6003 2.53246 6.22894
upperneck 19.8955 2.17467 0.34501
head 7.08986 1.36043 -0.780417
rclavicle -1.60022e-014 1.03368e-014
rhumerus -36.199 12.1391 -92.2128
rradius 38.7396
rwrist -22.7787
rhand -16.4346 1.98951
rfingers 7.12502
rthumb 9.78083 -27.7634
lclavicle -1.60022e-014 1.03368e-014
lhumerus -25.9653 0.471404 80.7079
lradius 30.086
lwrist -2.54075
lhand -19.5571 9.03703
lfingers 7.12502
lthumb 6.76735 38.9089
rfemur -12.0058 10.3878 26.7639
rtibia 32.9209
rfoot -30.3899 -24.1959
rtoes -11.1863
lfemur -12.7566 -14.6239 -25.1441
ltibia 34.7024
lfoot -23.0293 18.325
ltoes -1.32366
169
root 11.9988 22.1401 -0.203343 -167.5 -85.6691 166.418
lowerback 7.69405 1.9269 -1.03588
upperback 4.98027 2.31235 -1.91849
thorax 0.872391 1.08356 -1.55186
lowerneck -5.62606 2.53712 6.21729
upperneck 19.9877 2.17567 0.345935
head 7.12429 1.36069 -0.777806
rclavicle -1.80894e-014 1.70955e-014
rhumerus -36.2878 11.9418 -92.1547
rradius 38.4828
rwrist -22.6576
rhand -16.5084 2.01207
rfingers 7.12502
rthumb 9.70968 -27.7441
lclavicle -1.80894e-014 1.70955e-014
lhumerus -25.9739 -0.211318 81.0748
lradius 30.7859
lwrist -2.16015
lhand -19.448 8.94419
lfingers 7.12502
lthumb 6.8727 38.8126
rfemur -11.9047 10.52 26.7298
rtibia 32.9038
rfoot -30.5067 -24.3009
rtoes -11.0932
lfemur -12.6181 -14.6279 -25.2438
ltibia 34.5888
lfoot -22.8437 18.5232
ltoes -2.09771
